# xmcd
# Track frame offsets:
# 150
# 16296
# 30802
# 44949
# 65132
# 81313
# 94105
# 108646
# 123549
# 134210
# 145031
# 158245
# 171250
# 183743
# 196218
# 206938
# 219985
# 233968
# 246896
# 259389
# 272582
# 284660
# 297188
# 314310
# 329042
#
# Disc length: 4568 seconds
# Revision: 0
# Processed by: cddbd v1.5.1PL2 Copyright (c) Steve Scherf et al.
# Submitted via: VisiTrax 2.10.0.248 - For more info visit www.synapsa.com
#
DISCID=9a11d619
DTITLE=Sheena Twain - Country Ballads Disc 2
DYEAR=1900
DGENRE=
TTITLE0=Sheens Twain - You're still the one
TTITLE1=Eva Cassidy - It doesn't matter anymore
TTITLE2=Elvis Costello - A good year for the roses
TTITLE3=Lonestar - Amazed
TTITLE4=Nitty Gritty Dirt band - Mr Bojangles
TTITLE5=Kenny Rogers - Ruby don't take your love to town
TTITLE6=Jeannie C Riley - Harper Valley PTA
TTITLE7=Sherry Lynne - Lonesome
TTITLE8=Everly Brothers - Bye Bye Love
TTITLE9=Kris Kristofferson - Help me to make it through the night
TTITLE10=Ray Stevens - Misty
TTITLE11=Lynn Anderson - Rose Garden
TTITLE12=Glen Campbell - Somethin' about you baby
TTITLE13=Billy Jo Spiers - What I've got in mind
TTITLE14=LeRoy Van Dyke - Walk on by
TTITLE15=Bobby Gentry - I'll never fall in love again
TTITLE16=Glen Campbell - Wichitaw Linesman
TTITLE17=Faron Young - Your cheaing heart
TTITLE18=Bobby Bare - Green green grass of home
TTITLE19=Hank Locklin - Please help me I'm falling
TTITLE20=Eddy Arnold - Make the world go away
TTITLE21=Jim Reeves - I love you because
TTITLE22=Ray Price - For the good times
TTITLE23=Dr Hook - A little bit more
TTITLE24=Willie Nelson - Funny how time slips away
EXTD=
EXTT0=
EXTT1=
EXTT2=
EXTT3=
EXTT4=
EXTT5=
EXTT6=
EXTT7=
EXTT8=
EXTT9=
EXTT10=
EXTT11=
EXTT12=
EXTT13=
EXTT14=
EXTT15=
EXTT16=
EXTT17=
EXTT18=
EXTT19=
EXTT20=
EXTT21=
EXTT22=
EXTT23=
EXTT24=
PLAYORDER=
